FFmpeg version SVN-r25716, Copyright (c) 2000-2010 the FFmpeg developers  built on Nov 10 2010 12:23:18 with gcc 4.1.2 20080704 (Red Hat 4.1.2-48)  configuration: --enable-libmp3lame --enable-shared --disable-mmx --arch=x86_64  libavutil     50.33. 0 / 50.33. 0  libavcore      0.12. 1 /  0.12. 1  libavcodec    52.94. 4 / 52.94. 4  libavformat   52.84. 0 / 52.84. 0  libavdevice   52. 2. 2 / 52. 2. 2  libavfilter    1.59. 0 /  1.59. 0  libswscale     0.12. 0 /  0.12. 0Input #0, avi, from '/RAID10/data/converted_video_files/47672.avi':  Duration: 00:00:06.00, start: 0.000000, bitrate: 188620 kb/s    Stream #0.0: Video: msvideo1, rgb555le, 1024x1024, 20 tbr, 20 tbn, 20 tbc[buffer @ 0x92164c0] w:1024 h:1024 pixfmt:rgb555le[ffsink @ 0x92155a0] auto-inserting filter 'auto-inserted scaler 0' between the filter 'src' and the filter 'out'[scale @ 0x9214460] w:1024 h:1024 fmt:rgb555le -> w:1024 h:1024 fmt:yuv420p flags:0x4Output #0, flv, to '/RAID10/data/converted_video_files/47672.flv':  Metadata:    encoder         : Lavf52.84.0    Stream #0.0: Video: flv, yuv420p, 1024x1024, q=2-31, 600 kb/s, 1k tbn, 24 tbcStream mapping:  Stream #0.0 -> #0.0Press [q] to stop encodingframe=    5 fps=  0 q=4.7 size=    1075kB time=0.25 bitrate=35360.5kbits/s    frame=    9 fps=  8 q=15.7 size=    1140kB time=0.46 bitrate=20347.8kbits/s    frame=   18 fps= 10 q=31.0 size=    1175kB time=0.88 bitrate=11003.0kbits/s    frame=   26 fps= 11 q=31.0 size=    1209kB time=1.29 bitrate=7673.7kbits/s    frame=   32 fps= 12 q=31.0 size=    1214kB time=1.58 bitrate=6280.8kbits/s    frame=   43 fps= 13 q=31.0 size=    1247kB time=2.12 bitrate=4808.3kbits/s    frame=   53 fps= 14 q=31.0 size=    1280kB time=2.62 bitrate=3996.4kbits/s    frame=   62 fps= 14 q=31.0 size=    1312kB time=3.08 bitrate=3486.8kbits/s    frame=   70 fps= 14 q=31.0 size=    1317kB time=3.50 bitrate=3081.7kbits/s    frame=   80 fps= 15 q=31.0 size=    1349kB time=4.00 bitrate=2764.0kbits/s    frame=   90 fps= 15 q=31.0 size=    1382kB time=4.50 bitrate=2515.6kbits/s    frame=  101 fps= 16 q=31.0 size=    1415kB time=5.04 bitrate=2300.0kbits/s    frame=  112 fps= 16 q=31.0 size=    1449kB time=5.58 bitrate=2125.6kbits/s    frame=  120 fps= 16 q=31.0 Lsize=    1454kB time=6.00 bitrate=1984.9kbits/s    video:1452kB audio:0kB global headers:0kB muxing overhead 0.143283%